<svg xmlns="http://www.w3.org/2000/svg" xmlns:xlink="http://www.w3.org/1999/xlink"><defs><style>
    .sprite-symbol-usage {display: none;}
    .sprite-symbol-usage:target {display: inline;}
  </style><symbol viewBox="0 0 34.67 39.63" id="calendar">
  <title>calendar</title>
  <path d="M1,3.06H33.67a1,1,0,0,1,1,1v4a0,0,0,0,1,0,0H0a0,0,0,0,1,0,0v-4A1,1,0,0,1,1,3.06Z" style="fill: #555" />
  <rect x="3.68" width="3.25" height="5" rx="1.62" ry="1.62" style="fill: #555" />
  <rect x="27.73" width="3.25" height="5" rx="1.62" ry="1.62" style="fill: #555" />
  <path d="M15.67,23.88H48.33a1,1,0,0,1,1,1V51.81a0,0,0,0,1,0,0H14.67a0,0,0,0,1,0,0V24.88A1,1,0,0,1,15.67,23.88Z" transform="translate(49.33 63.5) rotate(180)" style="fill: #555" />
  <rect x="3.78" y="16.97" width="3.78" height="3.67" style="fill: #fff" />
  <rect x="11.56" y="16.97" width="3.78" height="3.67" style="fill: #fff" />
  <rect x="19.33" y="16.97" width="3.78" height="3.67" style="fill: #fff" />
  <rect x="27.11" y="16.97" width="3.78" height="3.67" style="fill: #fff" />
  <rect x="3.78" y="24.63" width="3.78" height="3.67" style="fill: #fff" />
  <rect x="11.56" y="24.63" width="3.78" height="3.67" style="fill: #fff" />
  <rect x="19.33" y="24.63" width="3.78" height="3.67" style="fill: #fff" />
  <rect x="27.11" y="24.63" width="3.78" height="3.67" style="fill: #fff" />
  <rect x="3.78" y="32.3" width="3.78" height="3.67" style="fill: #fff" />
  <rect x="11.56" y="32.3" width="3.78" height="3.67" style="fill: #fff" />
  <rect x="19.33" y="32.3" width="3.78" height="3.67" style="fill: #fff" />
  <rect x="27.11" y="32.3" width="3.78" height="3.67" style="fill: #fff" />
</symbol><symbol viewBox="0 0 100 100" stroke="#000" id="caution">
  <path d="M8,80s-5,8,5,9l78,0s9,0,5-9l-40-71s-4-6-8,0z" stroke-width="2" fill="#fff" fill-rule="evenodd" />
  <path d="M52,10 L10,85 L93,85z" stroke-width="2" stroke-linejoin="round" fill="#fc0" fill-rule="evenodd" />
  <path d="M52,32l0,26" stroke-width="9" stroke-linecap="round" fill-rule="evenodd" />
  <circle r="6" cx="52" cy="73" />
</symbol><symbol viewBox="0 0 273.4 222.2" id="twitter">
<path d="M273.4,26.3c-10.1,4.5-20.9,7.5-32.2,8.8c11.6-6.9,20.5-17.9,24.7-31C255,10.5,243,15.2,230.2,17.7
	C220,6.8,205.4,0,189.3,0c-31,0-56.1,25.1-56.1,56.1c0,4.4,0.5,8.7,1.5,12.8C88,66.5,46.7,44.2,19,10.3c-4.8,8.3-7.6,17.9-7.6,28.2
	c0,19.5,9.9,36.6,25,46.7c-9.2-0.3-17.8-2.8-25.4-7c0,0.2,0,0.5,0,0.7c0,27.2,19.3,49.8,45,55c-4.7,1.3-9.7,2-14.8,2
	c-3.6,0-7.1-0.4-10.6-1c7.1,22.3,27.9,38.5,52.4,39c-19.2,15-43.4,24-69.7,24c-4.5,0-9-0.3-13.4-0.8c24.8,15.9,54.3,25.2,86,25.2
	c103.2,0,159.6-85.5,159.6-159.6c0-2.4-0.1-4.9-0.2-7.3C256.4,47.4,265.9,37.5,273.4,26.3z" />
</symbol></defs><use id="calendar-usage" xlink:href="#calendar" class="sprite-symbol-usage" /><use id="caution-usage" xlink:href="#caution" class="sprite-symbol-usage" /><use id="twitter-usage" xlink:href="#twitter" class="sprite-symbol-usage" /></svg>