<svg xmlns="http://www.w3.org/2000/svg" xmlns:xlink="http://www.w3.org/1999/xlink"><defs><style>
    .sprite-symbol-usage {display: none;}
    .sprite-symbol-usage:target {display: inline;}
  </style><symbol viewBox="0 0 34.67 39.63" id="calendar">
  <title>calendar</title>
  <path d="M1,3.06H33.67a1,1,0,0,1,1,1v4a0,0,0,0,1,0,0H0a0,0,0,0,1,0,0v-4A1,1,0,0,1,1,3.06Z" style="fill: #555" />
  <rect x="3.68" width="3.25" height="5" rx="1.62" ry="1.62" style="fill: #555" />
  <rect x="27.73" width="3.25" height="5" rx="1.62" ry="1.62" style="fill: #555" />
  <path d="M15.67,23.88H48.33a1,1,0,0,1,1,1V51.81a0,0,0,0,1,0,0H14.67a0,0,0,0,1,0,0V24.88A1,1,0,0,1,15.67,23.88Z" transform="translate(49.33 63.5) rotate(180)" style="fill: #555" />
  <rect x="3.78" y="16.97" width="3.78" height="3.67" style="fill: #fff" />
  <rect x="11.56" y="16.97" width="3.78" height="3.67" style="fill: #fff" />
  <rect x="19.33" y="16.97" width="3.78" height="3.67" style="fill: #fff" />
  <rect x="27.11" y="16.97" width="3.78" height="3.67" style="fill: #fff" />
  <rect x="3.78" y="24.63" width="3.78" height="3.67" style="fill: #fff" />
  <rect x="11.56" y="24.63" width="3.78" height="3.67" style="fill: #fff" />
  <rect x="19.33" y="24.63" width="3.78" height="3.67" style="fill: #fff" />
  <rect x="27.11" y="24.63" width="3.78" height="3.67" style="fill: #fff" />
  <rect x="3.78" y="32.3" width="3.78" height="3.67" style="fill: #fff" />
  <rect x="11.56" y="32.3" width="3.78" height="3.67" style="fill: #fff" />
  <rect x="19.33" y="32.3" width="3.78" height="3.67" style="fill: #fff" />
  <rect x="27.11" y="32.3" width="3.78" height="3.67" style="fill: #fff" />
</symbol><symbol viewBox="0 0 37.58 27.38" id="details">
  <title>details</title>
  <rect width="6.31" height="6.31" style="fill: #346bab" />
  <rect y="21.06" width="6.31" height="6.31" style="fill: #346bab" />
  <rect y="10.25" width="6.31" height="6.31" style="fill: #346bab" />
  <rect x="11" width="26.58" height="6.31" style="fill: #346bab" />
  <rect x="11" y="10.25" width="26.58" height="6.31" style="fill: #346bab" />
  <rect x="11" y="21.06" width="26.58" height="6.31" style="fill: #346bab" />
</symbol><symbol viewBox="0 0 32.3 40.25" id="edit">
  <title>edit</title>
  <g id="edit_Layer_1" data-name="Layer 1">
    <polyline points="27.31 7.25 27.31 37.13 0.5 37.13 0.5 0.5 20.5 0.5" style="fill: #fff;stroke: #000;stroke-miterlimit: 10" />
    <polyline points="26.81 7.75 20 7.75 20 1" style="fill: #fff;stroke: #000;stroke-miterlimit: 10" />
    <line x1="20.15" y1="0.36" x2="27.47" y2="7.61" style="fill: none;stroke: #000;stroke-miterlimit: 10" />
  </g>
  <g id="edit_Layer_2" data-name="Layer 2">
    <rect x="39.46" y="29.61" width="4.31" height="23.7" transform="translate(14.49 -30.09) rotate(37.99)" style="fill: #fff;stroke: #000;stroke-miterlimit: 10" />
    <polyline points="16.18 39.2 12.97 39.68 12.46 36.24" style="fill: #fff;stroke: #000;stroke-miterlimit: 10" />
    <rect x="47.41" y="30.21" width="4.31" height="2.14" rx="0.7" ry="0.7" transform="translate(9.91 -37.14) rotate(37.99)" style="fill: #fff;stroke: #000;stroke-miterlimit: 10" />
  </g>
</symbol><symbol viewBox="0 0 48.88 48.88" id="info">
  <title>info</title>
  <g id="info_Background">
    <circle cx="24.44" cy="24.44" r="24.44" style="fill: #346bab" />
    <text x="-9.03" y="-8.31"></text>
  </g>
  <g id="info_Layer_1" data-name="Layer 1">
    <path d="M18.55,38.2" transform="translate(-9.03 -8.31)" style="fill: none;stroke: #000;stroke-miterlimit: 10" />
    <path d="M18.55,38.2a15.91,15.91,0,1,1,3.89,6" transform="translate(-9.03 -8.31)" style="fill: #fff;stroke: #000;stroke-miterlimit: 10;stroke-width: 0.5px" />
    <polyline points="9.58 29.52 5.63 36.38 13.84 36.03" style="fill: #fff;stroke: #000;stroke-miterlimit: 10;stroke-width: 0.5px" />
    <text transform="translate(18.85 31.69)" style="font-size: 24px;fill: #346bab;font-family: MonotypeCorsiva, Monotype Corsiva">i</text>
  </g>
</symbol><symbol viewBox="0 0 30.5 29.22" id="reset">
  <title>reset</title>
  <path d="M45.75,24.29a13.11,13.11,0,1,0,1.68,11.22" transform="translate(-20.29 -17.04)" style="fill: none;stroke: #fff;stroke-miterlimit: 10;stroke-width: 3px" />
  <polygon points="28.48 6.83 27.09 12.95 22.45 8.58 28.48 6.83" style="fill: #fff;stroke: #fff;stroke-miterlimit: 10;stroke-width: 3px" />
</symbol><symbol viewBox="0 0 34.41 35.82" id="search">
  <title>search</title>
  <circle cx="12.8" cy="12.8" r="10.8" style="fill: none;stroke: #fff;stroke-miterlimit: 10;stroke-width: 4px" />
  <line x1="19.9" y1="21.3" x2="32.99" y2="34.4" style="fill: none;stroke: #fff;stroke-miterlimit: 10;stroke-width: 4px" />
</symbol><symbol viewBox="0 0 34.41 35.82" id="search-strong">
  <title>search-strong</title>
  <circle cx="12.8" cy="12.8" r="10.8" style="fill: none;stroke: #000;stroke-miterlimit: 10;stroke-width: 4px" />
  <line x1="19.9" y1="21.3" x2="32.99" y2="34.4" style="fill: none;stroke: #000;stroke-miterlimit: 10;stroke-width: 4px" />
</symbol><symbol viewBox="0 0 14.85 24.43" id="sort">
  <title>sort</title>
  <path d="M32.77,42.39l6.43-7.83a1,1,0,0,0-.77-1.63H25.57a1,1,0,0,0-.77,1.63l6.43,7.83A1,1,0,0,0,32.77,42.39Z" transform="translate(-24.57 -18.33)" />
  <path d="M31.23,18.69,24.8,26.52a1,1,0,0,0,.77,1.64H38.43a1,1,0,0,0,.77-1.64l-6.43-7.83A1,1,0,0,0,31.23,18.69Z" transform="translate(-24.57 -18.33)" />
</symbol><symbol viewBox="0 0 35.25 57.65" id="user">
  <title>user</title>
  <g id="user_Layer_1" data-name="Layer 1">
    <ellipse cx="17.63" cy="13.37" rx="11.97" ry="13.37" />
    <path d="M40,31.89l-.23,0c-4.64,3.37-11.12,3.22-16,.06-5.17.54-9.31,6.38-9.31,12.85v4.44c0,6.62,4.34,11.46,9.67,11.17a117.18,117.18,0,0,1,15.9,0c5.33.29,9.67-4.55,9.67-11.17V44.78C49.62,38.16,45.28,32.18,40,31.89Z" transform="translate(-14.38 -2.75)" />
  </g>
</symbol></defs><use id="calendar-usage" xlink:href="#calendar" class="sprite-symbol-usage" /><use id="details-usage" xlink:href="#details" class="sprite-symbol-usage" /><use id="edit-usage" xlink:href="#edit" class="sprite-symbol-usage" /><use id="info-usage" xlink:href="#info" class="sprite-symbol-usage" /><use id="reset-usage" xlink:href="#reset" class="sprite-symbol-usage" /><use id="search-usage" xlink:href="#search" class="sprite-symbol-usage" /><use id="search-strong-usage" xlink:href="#search-strong" class="sprite-symbol-usage" /><use id="sort-usage" xlink:href="#sort" class="sprite-symbol-usage" /><use id="user-usage" xlink:href="#user" class="sprite-symbol-usage" /></svg>